<mxfile host="app.diagrams.net" agent="Mozilla/5.0 (Macintosh; Intel Mac OS X 10_15_7) AppleWebKit/605.1.15 (KHTML, like Gecko) Version/18.6 Safari/605.1.15" version="28.1.2">
  <diagram name="Página-1" id="LSABtN7aqw4RBNQ7D9AH">
    <mxGraphModel dx="2331" dy="1542" grid="1" gridSize="10" guides="1" tooltips="1" connect="1" arrows="1" fold="1" page="1" pageScale="1" pageWidth="827" pageHeight="1169" math="0" shadow="0">
      <root>
        <mxCell id="0" />
        <mxCell id="1" parent="0" />
        <mxCell id="G-8uH9gzmlZiW9w0FdUu-7" style="edgeStyle=orthogonalEdgeStyle;rounded=0;orthogonalLoop=1;jettySize=auto;html=1;exitX=0;exitY=0.5;exitDx=0;exitDy=0;entryX=0.5;entryY=1;entryDx=0;entryDy=0;" parent="1" source="G-8uH9gzmlZiW9w0FdUu-1" target="G-8uH9gzmlZiW9w0FdUu-2" edge="1">
          <mxGeometry relative="1" as="geometry" />
        </mxCell>
        <mxCell id="G-8uH9gzmlZiW9w0FdUu-8" style="edgeStyle=orthogonalEdgeStyle;rounded=0;orthogonalLoop=1;jettySize=auto;html=1;exitX=0.5;exitY=0;exitDx=0;exitDy=0;entryX=0;entryY=0.5;entryDx=0;entryDy=0;" parent="1" source="G-8uH9gzmlZiW9w0FdUu-1" target="G-8uH9gzmlZiW9w0FdUu-4" edge="1">
          <mxGeometry relative="1" as="geometry" />
        </mxCell>
        <mxCell id="G-8uH9gzmlZiW9w0FdUu-9" style="edgeStyle=orthogonalEdgeStyle;rounded=0;orthogonalLoop=1;jettySize=auto;html=1;exitX=1;exitY=0.5;exitDx=0;exitDy=0;" parent="1" source="G-8uH9gzmlZiW9w0FdUu-1" target="G-8uH9gzmlZiW9w0FdUu-5" edge="1">
          <mxGeometry relative="1" as="geometry" />
        </mxCell>
        <mxCell id="G-8uH9gzmlZiW9w0FdUu-10" style="edgeStyle=orthogonalEdgeStyle;rounded=0;orthogonalLoop=1;jettySize=auto;html=1;exitX=1;exitY=0.75;exitDx=0;exitDy=0;entryX=0;entryY=0.5;entryDx=0;entryDy=0;" parent="1" source="G-8uH9gzmlZiW9w0FdUu-1" target="G-8uH9gzmlZiW9w0FdUu-6" edge="1">
          <mxGeometry relative="1" as="geometry" />
        </mxCell>
        <mxCell id="G-8uH9gzmlZiW9w0FdUu-1" value="Oficinas" style="whiteSpace=wrap;html=1;align=center;" parent="1" vertex="1">
          <mxGeometry x="450" y="-140" width="100" height="40" as="geometry" />
        </mxCell>
        <mxCell id="G-8uH9gzmlZiW9w0FdUu-2" value="Id_oficina" style="ellipse;whiteSpace=wrap;html=1;align=center;fontStyle=4;" parent="1" vertex="1">
          <mxGeometry x="310" y="-190" width="100" height="40" as="geometry" />
        </mxCell>
        <mxCell id="Zevtjedcd_cMiRLPSGi3-4" style="edgeStyle=orthogonalEdgeStyle;rounded=0;orthogonalLoop=1;jettySize=auto;html=1;exitX=0;exitY=0;exitDx=0;exitDy=0;entryX=0.5;entryY=1;entryDx=0;entryDy=0;" edge="1" parent="1" source="G-8uH9gzmlZiW9w0FdUu-4" target="Zevtjedcd_cMiRLPSGi3-1">
          <mxGeometry relative="1" as="geometry" />
        </mxCell>
        <mxCell id="Zevtjedcd_cMiRLPSGi3-5" style="edgeStyle=orthogonalEdgeStyle;rounded=0;orthogonalLoop=1;jettySize=auto;html=1;exitX=0.5;exitY=0;exitDx=0;exitDy=0;entryX=0.5;entryY=1;entryDx=0;entryDy=0;" edge="1" parent="1" source="G-8uH9gzmlZiW9w0FdUu-4" target="Zevtjedcd_cMiRLPSGi3-3">
          <mxGeometry relative="1" as="geometry" />
        </mxCell>
        <mxCell id="Zevtjedcd_cMiRLPSGi3-6" style="edgeStyle=orthogonalEdgeStyle;rounded=0;orthogonalLoop=1;jettySize=auto;html=1;exitX=1;exitY=0;exitDx=0;exitDy=0;entryX=0.5;entryY=1;entryDx=0;entryDy=0;" edge="1" parent="1" source="G-8uH9gzmlZiW9w0FdUu-4" target="Zevtjedcd_cMiRLPSGi3-2">
          <mxGeometry relative="1" as="geometry" />
        </mxCell>
        <mxCell id="G-8uH9gzmlZiW9w0FdUu-4" value="Dirección" style="ellipse;whiteSpace=wrap;html=1;align=center;" parent="1" vertex="1">
          <mxGeometry x="560" y="-220" width="100" height="40" as="geometry" />
        </mxCell>
        <mxCell id="G-8uH9gzmlZiW9w0FdUu-5" value="Teléfono" style="ellipse;whiteSpace=wrap;html=1;align=center;" parent="1" vertex="1">
          <mxGeometry x="600" y="-140" width="100" height="40" as="geometry" />
        </mxCell>
        <mxCell id="G-8uH9gzmlZiW9w0FdUu-6" value="Fax" style="ellipse;whiteSpace=wrap;html=1;align=center;" parent="1" vertex="1">
          <mxGeometry x="590" y="-80" width="100" height="40" as="geometry" />
        </mxCell>
        <mxCell id="G-8uH9gzmlZiW9w0FdUu-25" style="edgeStyle=orthogonalEdgeStyle;rounded=0;orthogonalLoop=1;jettySize=auto;html=1;exitX=0.25;exitY=0;exitDx=0;exitDy=0;entryX=0.5;entryY=1;entryDx=0;entryDy=0;" parent="1" source="G-8uH9gzmlZiW9w0FdUu-11" target="G-8uH9gzmlZiW9w0FdUu-12" edge="1">
          <mxGeometry relative="1" as="geometry" />
        </mxCell>
        <mxCell id="G-8uH9gzmlZiW9w0FdUu-26" style="edgeStyle=orthogonalEdgeStyle;rounded=0;orthogonalLoop=1;jettySize=auto;html=1;exitX=0.75;exitY=0;exitDx=0;exitDy=0;entryX=0;entryY=0.5;entryDx=0;entryDy=0;" parent="1" source="G-8uH9gzmlZiW9w0FdUu-11" target="G-8uH9gzmlZiW9w0FdUu-24" edge="1">
          <mxGeometry relative="1" as="geometry">
            <Array as="points">
              <mxPoint x="490" y="390" />
              <mxPoint x="490" y="280" />
            </Array>
          </mxGeometry>
        </mxCell>
        <mxCell id="G-8uH9gzmlZiW9w0FdUu-27" style="edgeStyle=orthogonalEdgeStyle;rounded=0;orthogonalLoop=1;jettySize=auto;html=1;exitX=1;exitY=0.25;exitDx=0;exitDy=0;entryX=0;entryY=0.5;entryDx=0;entryDy=0;" parent="1" source="G-8uH9gzmlZiW9w0FdUu-11" target="G-8uH9gzmlZiW9w0FdUu-14" edge="1">
          <mxGeometry relative="1" as="geometry">
            <Array as="points">
              <mxPoint x="502" y="330" />
            </Array>
          </mxGeometry>
        </mxCell>
        <mxCell id="G-8uH9gzmlZiW9w0FdUu-30" style="edgeStyle=orthogonalEdgeStyle;rounded=0;orthogonalLoop=1;jettySize=auto;html=1;exitX=0;exitY=0.25;exitDx=0;exitDy=0;entryX=1;entryY=0.5;entryDx=0;entryDy=0;" parent="1" source="G-8uH9gzmlZiW9w0FdUu-11" target="G-8uH9gzmlZiW9w0FdUu-22" edge="1">
          <mxGeometry relative="1" as="geometry" />
        </mxCell>
        <mxCell id="G-8uH9gzmlZiW9w0FdUu-31" style="edgeStyle=orthogonalEdgeStyle;rounded=0;orthogonalLoop=1;jettySize=auto;html=1;exitX=0;exitY=0.5;exitDx=0;exitDy=0;entryX=1;entryY=0.5;entryDx=0;entryDy=0;" parent="1" source="G-8uH9gzmlZiW9w0FdUu-11" target="G-8uH9gzmlZiW9w0FdUu-23" edge="1">
          <mxGeometry relative="1" as="geometry" />
        </mxCell>
        <mxCell id="G-8uH9gzmlZiW9w0FdUu-32" style="edgeStyle=orthogonalEdgeStyle;rounded=0;orthogonalLoop=1;jettySize=auto;html=1;exitX=0;exitY=0.75;exitDx=0;exitDy=0;entryX=1;entryY=0.5;entryDx=0;entryDy=0;" parent="1" source="G-8uH9gzmlZiW9w0FdUu-11" target="G-8uH9gzmlZiW9w0FdUu-17" edge="1">
          <mxGeometry relative="1" as="geometry" />
        </mxCell>
        <mxCell id="Zevtjedcd_cMiRLPSGi3-72" style="edgeStyle=orthogonalEdgeStyle;rounded=0;orthogonalLoop=1;jettySize=auto;html=1;exitX=1;exitY=0.75;exitDx=0;exitDy=0;entryX=0;entryY=0.5;entryDx=0;entryDy=0;" edge="1" parent="1" source="G-8uH9gzmlZiW9w0FdUu-11" target="G-8uH9gzmlZiW9w0FdUu-15">
          <mxGeometry relative="1" as="geometry" />
        </mxCell>
        <mxCell id="Zevtjedcd_cMiRLPSGi3-74" style="edgeStyle=orthogonalEdgeStyle;rounded=0;orthogonalLoop=1;jettySize=auto;html=1;exitX=1;exitY=1;exitDx=0;exitDy=0;entryX=0;entryY=0.5;entryDx=0;entryDy=0;" edge="1" parent="1" source="G-8uH9gzmlZiW9w0FdUu-11" target="G-8uH9gzmlZiW9w0FdUu-16">
          <mxGeometry relative="1" as="geometry">
            <Array as="points">
              <mxPoint x="520" y="430" />
              <mxPoint x="520" y="490" />
            </Array>
          </mxGeometry>
        </mxCell>
        <mxCell id="Zevtjedcd_cMiRLPSGi3-93" style="edgeStyle=orthogonalEdgeStyle;rounded=0;orthogonalLoop=1;jettySize=auto;html=1;exitX=0;exitY=1;exitDx=0;exitDy=0;entryX=1;entryY=0.5;entryDx=0;entryDy=0;" edge="1" parent="1" source="G-8uH9gzmlZiW9w0FdUu-11" target="G-8uH9gzmlZiW9w0FdUu-18">
          <mxGeometry relative="1" as="geometry">
            <Array as="points">
              <mxPoint x="340" y="430" />
              <mxPoint x="340" y="475" />
            </Array>
          </mxGeometry>
        </mxCell>
        <mxCell id="G-8uH9gzmlZiW9w0FdUu-11" value="Empleado" style="whiteSpace=wrap;html=1;align=center;" parent="1" vertex="1">
          <mxGeometry x="402" y="390" width="100" height="40" as="geometry" />
        </mxCell>
        <mxCell id="G-8uH9gzmlZiW9w0FdUu-12" value="id_empleado" style="ellipse;whiteSpace=wrap;html=1;align=center;fontStyle=4;" parent="1" vertex="1">
          <mxGeometry x="339.5" y="280" width="100" height="40" as="geometry" />
        </mxCell>
        <mxCell id="G-8uH9gzmlZiW9w0FdUu-14" value="Puesto" style="ellipse;whiteSpace=wrap;html=1;align=center;" parent="1" vertex="1">
          <mxGeometry x="590" y="310" width="100" height="40" as="geometry" />
        </mxCell>
        <mxCell id="G-8uH9gzmlZiW9w0FdUu-15" value="Salario anual" style="ellipse;whiteSpace=wrap;html=1;align=center;" parent="1" vertex="1">
          <mxGeometry x="569.5" y="420" width="100" height="40" as="geometry" />
        </mxCell>
        <mxCell id="G-8uH9gzmlZiW9w0FdUu-16" value="Fecha de ingreso" style="ellipse;whiteSpace=wrap;html=1;align=center;" parent="1" vertex="1">
          <mxGeometry x="560" y="470" width="100" height="40" as="geometry" />
        </mxCell>
        <mxCell id="G-8uH9gzmlZiW9w0FdUu-17" value="Teléfono" style="ellipse;whiteSpace=wrap;html=1;align=center;" parent="1" vertex="1">
          <mxGeometry x="172" y="400" width="100" height="40" as="geometry" />
        </mxCell>
        <mxCell id="G-8uH9gzmlZiW9w0FdUu-18" value="Fecha de nac" style="ellipse;whiteSpace=wrap;html=1;align=center;" parent="1" vertex="1">
          <mxGeometry x="205" y="455" width="100" height="40" as="geometry" />
        </mxCell>
        <mxCell id="G-8uH9gzmlZiW9w0FdUu-22" value="Nombre" style="ellipse;whiteSpace=wrap;html=1;align=center;" parent="1" vertex="1">
          <mxGeometry x="239.5" y="320" width="100" height="40" as="geometry" />
        </mxCell>
        <mxCell id="G-8uH9gzmlZiW9w0FdUu-23" value="Dierección" style="ellipse;whiteSpace=wrap;html=1;align=center;" parent="1" vertex="1">
          <mxGeometry x="172" y="355" width="100" height="40" as="geometry" />
        </mxCell>
        <mxCell id="G-8uH9gzmlZiW9w0FdUu-24" value="&lt;span style=&quot;border-bottom-width: 1px; border-bottom-style: dotted; border-bottom-color: currentcolor;&quot;&gt;DNI&lt;/span&gt;" style="ellipse;whiteSpace=wrap;html=1;align=center;" parent="1" vertex="1">
          <mxGeometry x="560" y="260" width="100" height="40" as="geometry" />
        </mxCell>
        <mxCell id="G-8uH9gzmlZiW9w0FdUu-34" value="" style="triangle;whiteSpace=wrap;html=1;rotation=90;" parent="1" vertex="1">
          <mxGeometry x="238" y="535" width="60" height="80" as="geometry" />
        </mxCell>
        <mxCell id="G-8uH9gzmlZiW9w0FdUu-47" style="edgeStyle=orthogonalEdgeStyle;rounded=0;orthogonalLoop=1;jettySize=auto;html=1;exitX=0;exitY=0.25;exitDx=0;exitDy=0;entryX=1;entryY=0.5;entryDx=0;entryDy=0;" parent="1" source="G-8uH9gzmlZiW9w0FdUu-36" target="G-8uH9gzmlZiW9w0FdUu-45" edge="1">
          <mxGeometry relative="1" as="geometry" />
        </mxCell>
        <mxCell id="G-8uH9gzmlZiW9w0FdUu-48" style="edgeStyle=orthogonalEdgeStyle;rounded=0;orthogonalLoop=1;jettySize=auto;html=1;exitX=0;exitY=0.5;exitDx=0;exitDy=0;entryX=1;entryY=0.5;entryDx=0;entryDy=0;" parent="1" source="G-8uH9gzmlZiW9w0FdUu-36" target="G-8uH9gzmlZiW9w0FdUu-44" edge="1">
          <mxGeometry relative="1" as="geometry" />
        </mxCell>
        <mxCell id="G-8uH9gzmlZiW9w0FdUu-49" style="edgeStyle=orthogonalEdgeStyle;rounded=0;orthogonalLoop=1;jettySize=auto;html=1;exitX=0;exitY=0.75;exitDx=0;exitDy=0;entryX=1;entryY=0.5;entryDx=0;entryDy=0;" parent="1" source="G-8uH9gzmlZiW9w0FdUu-36" target="G-8uH9gzmlZiW9w0FdUu-46" edge="1">
          <mxGeometry relative="1" as="geometry" />
        </mxCell>
        <mxCell id="G-8uH9gzmlZiW9w0FdUu-36" value="Director" style="whiteSpace=wrap;html=1;align=center;" parent="1" vertex="1">
          <mxGeometry x="78" y="605" width="100" height="40" as="geometry" />
        </mxCell>
        <mxCell id="G-8uH9gzmlZiW9w0FdUu-37" value="Supervisor" style="whiteSpace=wrap;html=1;align=center;" parent="1" vertex="1">
          <mxGeometry x="148" y="665" width="100" height="40" as="geometry" />
        </mxCell>
        <mxCell id="Zevtjedcd_cMiRLPSGi3-96" style="edgeStyle=orthogonalEdgeStyle;rounded=0;orthogonalLoop=1;jettySize=auto;html=1;exitX=0.5;exitY=1;exitDx=0;exitDy=0;" edge="1" parent="1" source="G-8uH9gzmlZiW9w0FdUu-38" target="G-8uH9gzmlZiW9w0FdUu-50">
          <mxGeometry relative="1" as="geometry" />
        </mxCell>
        <mxCell id="G-8uH9gzmlZiW9w0FdUu-38" value="Administrativo" style="whiteSpace=wrap;html=1;align=center;" parent="1" vertex="1">
          <mxGeometry x="283" y="615" width="100" height="40" as="geometry" />
        </mxCell>
        <mxCell id="G-8uH9gzmlZiW9w0FdUu-39" value="" style="endArrow=none;html=1;rounded=0;exitX=0.5;exitY=0;exitDx=0;exitDy=0;entryX=0.221;entryY=0.881;entryDx=0;entryDy=0;entryPerimeter=0;" parent="1" source="G-8uH9gzmlZiW9w0FdUu-36" target="G-8uH9gzmlZiW9w0FdUu-34" edge="1">
          <mxGeometry relative="1" as="geometry">
            <mxPoint x="218" y="635" as="sourcePoint" />
            <mxPoint x="378" y="635" as="targetPoint" />
          </mxGeometry>
        </mxCell>
        <mxCell id="G-8uH9gzmlZiW9w0FdUu-40" value="" style="endArrow=none;html=1;rounded=0;entryX=0.57;entryY=-0.025;entryDx=0;entryDy=0;entryPerimeter=0;exitX=0.271;exitY=0.142;exitDx=0;exitDy=0;exitPerimeter=0;" parent="1" source="G-8uH9gzmlZiW9w0FdUu-34" target="G-8uH9gzmlZiW9w0FdUu-38" edge="1">
          <mxGeometry relative="1" as="geometry">
            <mxPoint x="218" y="635" as="sourcePoint" />
            <mxPoint x="378" y="635" as="targetPoint" />
          </mxGeometry>
        </mxCell>
        <mxCell id="G-8uH9gzmlZiW9w0FdUu-41" value="" style="endArrow=none;html=1;rounded=0;exitX=0.5;exitY=0;exitDx=0;exitDy=0;entryX=0.5;entryY=1;entryDx=0;entryDy=0;" parent="1" source="G-8uH9gzmlZiW9w0FdUu-37" target="G-8uH9gzmlZiW9w0FdUu-34" edge="1">
          <mxGeometry relative="1" as="geometry">
            <mxPoint x="168" y="690" as="sourcePoint" />
            <mxPoint x="328" y="690" as="targetPoint" />
          </mxGeometry>
        </mxCell>
        <mxCell id="G-8uH9gzmlZiW9w0FdUu-44" value="Pago anual&lt;div&gt;vehículo&lt;/div&gt;" style="ellipse;whiteSpace=wrap;html=1;align=center;" parent="1" vertex="1">
          <mxGeometry x="-92" y="595" width="100" height="40" as="geometry" />
        </mxCell>
        <mxCell id="G-8uH9gzmlZiW9w0FdUu-45" value="Fecha de inicio&amp;nbsp;&lt;div&gt;en cargo&lt;/div&gt;" style="ellipse;whiteSpace=wrap;html=1;align=center;" parent="1" vertex="1">
          <mxGeometry x="-62" y="535" width="100" height="40" as="geometry" />
        </mxCell>
        <mxCell id="G-8uH9gzmlZiW9w0FdUu-46" value="Bonificación&lt;div&gt;mensual&lt;/div&gt;" style="ellipse;whiteSpace=wrap;html=1;align=center;" parent="1" vertex="1">
          <mxGeometry x="-82" y="655" width="100" height="40" as="geometry" />
        </mxCell>
        <mxCell id="G-8uH9gzmlZiW9w0FdUu-50" value="Velocidad&lt;div&gt;mecanografía&lt;/div&gt;" style="ellipse;whiteSpace=wrap;html=1;align=center;" parent="1" vertex="1">
          <mxGeometry x="283" y="680" width="100" height="40" as="geometry" />
        </mxCell>
        <mxCell id="G-8uH9gzmlZiW9w0FdUu-60" style="edgeStyle=orthogonalEdgeStyle;rounded=0;orthogonalLoop=1;jettySize=auto;html=1;exitX=0;exitY=0.5;exitDx=0;exitDy=0;entryX=1;entryY=0.5;entryDx=0;entryDy=0;" parent="1" source="G-8uH9gzmlZiW9w0FdUu-52" target="G-8uH9gzmlZiW9w0FdUu-56" edge="1">
          <mxGeometry relative="1" as="geometry" />
        </mxCell>
        <mxCell id="G-8uH9gzmlZiW9w0FdUu-61" style="edgeStyle=orthogonalEdgeStyle;rounded=0;orthogonalLoop=1;jettySize=auto;html=1;exitX=0;exitY=0.75;exitDx=0;exitDy=0;entryX=1;entryY=0.5;entryDx=0;entryDy=0;" parent="1" source="G-8uH9gzmlZiW9w0FdUu-52" target="G-8uH9gzmlZiW9w0FdUu-58" edge="1">
          <mxGeometry relative="1" as="geometry" />
        </mxCell>
        <mxCell id="G-8uH9gzmlZiW9w0FdUu-62" style="edgeStyle=orthogonalEdgeStyle;rounded=0;orthogonalLoop=1;jettySize=auto;html=1;exitX=1;exitY=0.25;exitDx=0;exitDy=0;" parent="1" source="G-8uH9gzmlZiW9w0FdUu-52" target="G-8uH9gzmlZiW9w0FdUu-54" edge="1">
          <mxGeometry relative="1" as="geometry" />
        </mxCell>
        <mxCell id="G-8uH9gzmlZiW9w0FdUu-63" style="edgeStyle=orthogonalEdgeStyle;rounded=0;orthogonalLoop=1;jettySize=auto;html=1;exitX=1;exitY=0.75;exitDx=0;exitDy=0;entryX=0;entryY=0.5;entryDx=0;entryDy=0;" parent="1" source="G-8uH9gzmlZiW9w0FdUu-52" target="G-8uH9gzmlZiW9w0FdUu-55" edge="1">
          <mxGeometry relative="1" as="geometry" />
        </mxCell>
        <mxCell id="G-8uH9gzmlZiW9w0FdUu-52" value="Pariente" style="whiteSpace=wrap;html=1;align=center;" parent="1" vertex="1">
          <mxGeometry x="403" y="70" width="100" height="40" as="geometry" />
        </mxCell>
        <mxCell id="G-8uH9gzmlZiW9w0FdUu-54" value="Dirección" style="ellipse;whiteSpace=wrap;html=1;align=center;" parent="1" vertex="1">
          <mxGeometry x="533" y="40" width="100" height="40" as="geometry" />
        </mxCell>
        <mxCell id="G-8uH9gzmlZiW9w0FdUu-55" value="Teléfono" style="ellipse;whiteSpace=wrap;html=1;align=center;" parent="1" vertex="1">
          <mxGeometry x="547" y="110" width="100" height="40" as="geometry" />
        </mxCell>
        <mxCell id="G-8uH9gzmlZiW9w0FdUu-56" value="Nombre" style="ellipse;whiteSpace=wrap;html=1;align=center;" parent="1" vertex="1">
          <mxGeometry x="272" y="40" width="100" height="40" as="geometry" />
        </mxCell>
        <mxCell id="G-8uH9gzmlZiW9w0FdUu-58" value="Relación con&lt;div&gt;empleado&lt;/div&gt;" style="ellipse;whiteSpace=wrap;html=1;align=center;" parent="1" vertex="1">
          <mxGeometry x="262" y="110" width="100" height="40" as="geometry" />
        </mxCell>
        <mxCell id="G-8uH9gzmlZiW9w0FdUu-65" value="Relationship" style="shape=rhombus;perimeter=rhombusPerimeter;whiteSpace=wrap;html=1;align=center;" parent="1" vertex="1">
          <mxGeometry x="393" y="200" width="120" height="60" as="geometry" />
        </mxCell>
        <mxCell id="G-8uH9gzmlZiW9w0FdUu-74" style="edgeStyle=orthogonalEdgeStyle;rounded=0;orthogonalLoop=1;jettySize=auto;html=1;exitX=0;exitY=0.5;exitDx=0;exitDy=0;entryX=1;entryY=0.5;entryDx=0;entryDy=0;" parent="1" source="G-8uH9gzmlZiW9w0FdUu-78" target="G-8uH9gzmlZiW9w0FdUu-82" edge="1">
          <mxGeometry relative="1" as="geometry" />
        </mxCell>
        <mxCell id="G-8uH9gzmlZiW9w0FdUu-75" style="edgeStyle=orthogonalEdgeStyle;rounded=0;orthogonalLoop=1;jettySize=auto;html=1;exitX=0;exitY=0.75;exitDx=0;exitDy=0;entryX=1;entryY=0.5;entryDx=0;entryDy=0;" parent="1" source="G-8uH9gzmlZiW9w0FdUu-78" target="G-8uH9gzmlZiW9w0FdUu-83" edge="1">
          <mxGeometry relative="1" as="geometry" />
        </mxCell>
        <mxCell id="G-8uH9gzmlZiW9w0FdUu-77" style="edgeStyle=orthogonalEdgeStyle;rounded=0;orthogonalLoop=1;jettySize=auto;html=1;exitX=1;exitY=0.75;exitDx=0;exitDy=0;entryX=0;entryY=0.5;entryDx=0;entryDy=0;" parent="1" source="G-8uH9gzmlZiW9w0FdUu-78" target="G-8uH9gzmlZiW9w0FdUu-81" edge="1">
          <mxGeometry relative="1" as="geometry" />
        </mxCell>
        <mxCell id="G-8uH9gzmlZiW9w0FdUu-123" style="edgeStyle=orthogonalEdgeStyle;rounded=0;orthogonalLoop=1;jettySize=auto;html=1;exitX=1;exitY=0.25;exitDx=0;exitDy=0;entryX=0;entryY=0.5;entryDx=0;entryDy=0;" parent="1" source="G-8uH9gzmlZiW9w0FdUu-78" target="G-8uH9gzmlZiW9w0FdUu-80" edge="1">
          <mxGeometry relative="1" as="geometry" />
        </mxCell>
        <mxCell id="G-8uH9gzmlZiW9w0FdUu-125" style="edgeStyle=orthogonalEdgeStyle;rounded=0;orthogonalLoop=1;jettySize=auto;html=1;exitX=1;exitY=1;exitDx=0;exitDy=0;entryX=0;entryY=0.5;entryDx=0;entryDy=0;" parent="1" source="G-8uH9gzmlZiW9w0FdUu-78" target="G-8uH9gzmlZiW9w0FdUu-124" edge="1">
          <mxGeometry relative="1" as="geometry" />
        </mxCell>
        <mxCell id="Zevtjedcd_cMiRLPSGi3-84" style="edgeStyle=orthogonalEdgeStyle;rounded=0;orthogonalLoop=1;jettySize=auto;html=1;exitX=0;exitY=0.25;exitDx=0;exitDy=0;entryX=1;entryY=0.5;entryDx=0;entryDy=0;" edge="1" parent="1" source="G-8uH9gzmlZiW9w0FdUu-78" target="G-8uH9gzmlZiW9w0FdUu-79">
          <mxGeometry relative="1" as="geometry" />
        </mxCell>
        <mxCell id="G-8uH9gzmlZiW9w0FdUu-78" value="Inquilino(clientes)" style="whiteSpace=wrap;html=1;align=center;" parent="1" vertex="1">
          <mxGeometry x="532" y="820" width="100" height="40" as="geometry" />
        </mxCell>
        <mxCell id="G-8uH9gzmlZiW9w0FdUu-79" value="Id_inquilino" style="ellipse;whiteSpace=wrap;html=1;align=center;fontStyle=4;" parent="1" vertex="1">
          <mxGeometry x="372" y="750" width="100" height="40" as="geometry" />
        </mxCell>
        <mxCell id="G-8uH9gzmlZiW9w0FdUu-80" value="Teléfono" style="ellipse;whiteSpace=wrap;html=1;align=center;" parent="1" vertex="1">
          <mxGeometry x="702" y="760" width="100" height="40" as="geometry" />
        </mxCell>
        <mxCell id="G-8uH9gzmlZiW9w0FdUu-81" value="Tipo inmueble&lt;div&gt;preferido&lt;/div&gt;" style="ellipse;whiteSpace=wrap;html=1;align=center;" parent="1" vertex="1">
          <mxGeometry x="722" y="830" width="100" height="40" as="geometry" />
        </mxCell>
        <mxCell id="G-8uH9gzmlZiW9w0FdUu-82" value="Nombre" style="ellipse;whiteSpace=wrap;html=1;align=center;" parent="1" vertex="1">
          <mxGeometry x="362" y="820" width="100" height="40" as="geometry" />
        </mxCell>
        <mxCell id="G-8uH9gzmlZiW9w0FdUu-83" value="Dirección" style="ellipse;whiteSpace=wrap;html=1;align=center;" parent="1" vertex="1">
          <mxGeometry x="392" y="880" width="100" height="40" as="geometry" />
        </mxCell>
        <mxCell id="G-8uH9gzmlZiW9w0FdUu-84" value="o" style="text;html=1;align=center;verticalAlign=middle;resizable=0;points=[];autosize=1;strokeColor=none;fillColor=none;" parent="1" vertex="1">
          <mxGeometry x="253" y="555" width="30" height="30" as="geometry" />
        </mxCell>
        <mxCell id="G-8uH9gzmlZiW9w0FdUu-87" style="edgeStyle=orthogonalEdgeStyle;rounded=0;orthogonalLoop=1;jettySize=auto;html=1;exitX=0.25;exitY=0;exitDx=0;exitDy=0;entryX=1;entryY=0.5;entryDx=0;entryDy=0;" parent="1" source="G-8uH9gzmlZiW9w0FdUu-85" target="G-8uH9gzmlZiW9w0FdUu-86" edge="1">
          <mxGeometry relative="1" as="geometry" />
        </mxCell>
        <mxCell id="G-8uH9gzmlZiW9w0FdUu-91" style="edgeStyle=orthogonalEdgeStyle;rounded=0;orthogonalLoop=1;jettySize=auto;html=1;exitX=0.5;exitY=1;exitDx=0;exitDy=0;entryX=0;entryY=0.5;entryDx=0;entryDy=0;" parent="1" source="G-8uH9gzmlZiW9w0FdUu-85" target="G-8uH9gzmlZiW9w0FdUu-88" edge="1">
          <mxGeometry relative="1" as="geometry" />
        </mxCell>
        <mxCell id="G-8uH9gzmlZiW9w0FdUu-85" value="Propietario" style="whiteSpace=wrap;html=1;align=center;" parent="1" vertex="1">
          <mxGeometry x="-740" y="185" width="100" height="40" as="geometry" />
        </mxCell>
        <mxCell id="G-8uH9gzmlZiW9w0FdUu-86" value="Id_propetario" style="ellipse;whiteSpace=wrap;html=1;align=center;fontStyle=4;" parent="1" vertex="1">
          <mxGeometry x="-850" y="125" width="100" height="40" as="geometry" />
        </mxCell>
        <mxCell id="G-8uH9gzmlZiW9w0FdUu-88" value="" style="triangle;whiteSpace=wrap;html=1;rotation=90;" parent="1" vertex="1">
          <mxGeometry x="-720" y="270" width="60" height="80" as="geometry" />
        </mxCell>
        <mxCell id="G-8uH9gzmlZiW9w0FdUu-89" value="o" style="text;html=1;align=center;verticalAlign=middle;resizable=0;points=[];autosize=1;strokeColor=none;fillColor=none;" parent="1" vertex="1">
          <mxGeometry x="-705" y="290" width="30" height="30" as="geometry" />
        </mxCell>
        <mxCell id="G-8uH9gzmlZiW9w0FdUu-105" style="edgeStyle=orthogonalEdgeStyle;rounded=0;orthogonalLoop=1;jettySize=auto;html=1;exitX=0;exitY=0.5;exitDx=0;exitDy=0;entryX=1;entryY=0.5;entryDx=0;entryDy=0;" parent="1" source="G-8uH9gzmlZiW9w0FdUu-92" target="G-8uH9gzmlZiW9w0FdUu-98" edge="1">
          <mxGeometry relative="1" as="geometry" />
        </mxCell>
        <mxCell id="G-8uH9gzmlZiW9w0FdUu-107" style="edgeStyle=orthogonalEdgeStyle;rounded=0;orthogonalLoop=1;jettySize=auto;html=1;exitX=0.5;exitY=1;exitDx=0;exitDy=0;entryX=0.5;entryY=0;entryDx=0;entryDy=0;" parent="1" source="G-8uH9gzmlZiW9w0FdUu-92" target="G-8uH9gzmlZiW9w0FdUu-100" edge="1">
          <mxGeometry relative="1" as="geometry" />
        </mxCell>
        <mxCell id="G-8uH9gzmlZiW9w0FdUu-112" style="edgeStyle=orthogonalEdgeStyle;rounded=0;orthogonalLoop=1;jettySize=auto;html=1;exitX=0;exitY=0.75;exitDx=0;exitDy=0;entryX=1;entryY=0.5;entryDx=0;entryDy=0;" parent="1" source="G-8uH9gzmlZiW9w0FdUu-92" target="G-8uH9gzmlZiW9w0FdUu-99" edge="1">
          <mxGeometry relative="1" as="geometry" />
        </mxCell>
        <mxCell id="G-8uH9gzmlZiW9w0FdUu-92" value="Particular" style="whiteSpace=wrap;html=1;align=center;" parent="1" vertex="1">
          <mxGeometry x="-840" y="355" width="100" height="40" as="geometry" />
        </mxCell>
        <mxCell id="G-8uH9gzmlZiW9w0FdUu-113" style="edgeStyle=orthogonalEdgeStyle;rounded=0;orthogonalLoop=1;jettySize=auto;html=1;exitX=0.25;exitY=1;exitDx=0;exitDy=0;entryX=0.5;entryY=0;entryDx=0;entryDy=0;" parent="1" source="G-8uH9gzmlZiW9w0FdUu-93" target="G-8uH9gzmlZiW9w0FdUu-111" edge="1">
          <mxGeometry relative="1" as="geometry" />
        </mxCell>
        <mxCell id="G-8uH9gzmlZiW9w0FdUu-117" style="edgeStyle=orthogonalEdgeStyle;rounded=0;orthogonalLoop=1;jettySize=auto;html=1;exitX=0.75;exitY=1;exitDx=0;exitDy=0;entryX=0;entryY=0.5;entryDx=0;entryDy=0;" parent="1" source="G-8uH9gzmlZiW9w0FdUu-93" target="G-8uH9gzmlZiW9w0FdUu-104" edge="1">
          <mxGeometry relative="1" as="geometry" />
        </mxCell>
        <mxCell id="G-8uH9gzmlZiW9w0FdUu-119" style="edgeStyle=orthogonalEdgeStyle;rounded=0;orthogonalLoop=1;jettySize=auto;html=1;exitX=1;exitY=0.75;exitDx=0;exitDy=0;entryX=0;entryY=0.5;entryDx=0;entryDy=0;" parent="1" source="G-8uH9gzmlZiW9w0FdUu-93" target="G-8uH9gzmlZiW9w0FdUu-103" edge="1">
          <mxGeometry relative="1" as="geometry" />
        </mxCell>
        <mxCell id="G-8uH9gzmlZiW9w0FdUu-120" style="edgeStyle=orthogonalEdgeStyle;rounded=0;orthogonalLoop=1;jettySize=auto;html=1;exitX=0.75;exitY=0;exitDx=0;exitDy=0;entryX=0;entryY=0.5;entryDx=0;entryDy=0;" parent="1" source="G-8uH9gzmlZiW9w0FdUu-93" target="G-8uH9gzmlZiW9w0FdUu-102" edge="1">
          <mxGeometry relative="1" as="geometry" />
        </mxCell>
        <mxCell id="Zevtjedcd_cMiRLPSGi3-49" style="edgeStyle=orthogonalEdgeStyle;rounded=0;orthogonalLoop=1;jettySize=auto;html=1;exitX=0.5;exitY=1;exitDx=0;exitDy=0;entryX=0;entryY=0.5;entryDx=0;entryDy=0;" edge="1" parent="1" source="G-8uH9gzmlZiW9w0FdUu-93" target="G-8uH9gzmlZiW9w0FdUu-109">
          <mxGeometry relative="1" as="geometry" />
        </mxCell>
        <mxCell id="G-8uH9gzmlZiW9w0FdUu-93" value="Empresa" style="whiteSpace=wrap;html=1;align=center;" parent="1" vertex="1">
          <mxGeometry x="-640" y="355" width="100" height="40" as="geometry" />
        </mxCell>
        <mxCell id="G-8uH9gzmlZiW9w0FdUu-95" value="" style="endArrow=none;html=1;rounded=0;exitX=0.5;exitY=0;exitDx=0;exitDy=0;entryX=0.5;entryY=1;entryDx=0;entryDy=0;" parent="1" source="G-8uH9gzmlZiW9w0FdUu-92" target="G-8uH9gzmlZiW9w0FdUu-88" edge="1">
          <mxGeometry relative="1" as="geometry">
            <mxPoint x="-560" y="305" as="sourcePoint" />
            <mxPoint x="-400" y="305" as="targetPoint" />
          </mxGeometry>
        </mxCell>
        <mxCell id="G-8uH9gzmlZiW9w0FdUu-97" value="" style="endArrow=none;html=1;rounded=0;exitX=0.5;exitY=0;exitDx=0;exitDy=0;entryX=0.5;entryY=0;entryDx=0;entryDy=0;" parent="1" source="G-8uH9gzmlZiW9w0FdUu-88" target="G-8uH9gzmlZiW9w0FdUu-93" edge="1">
          <mxGeometry relative="1" as="geometry">
            <mxPoint x="-560" y="305" as="sourcePoint" />
            <mxPoint x="-400" y="305" as="targetPoint" />
          </mxGeometry>
        </mxCell>
        <mxCell id="G-8uH9gzmlZiW9w0FdUu-98" value="Nombre" style="ellipse;whiteSpace=wrap;html=1;align=center;" parent="1" vertex="1">
          <mxGeometry x="-1000" y="325" width="100" height="40" as="geometry" />
        </mxCell>
        <mxCell id="G-8uH9gzmlZiW9w0FdUu-99" value="Dirección" style="ellipse;whiteSpace=wrap;html=1;align=center;" parent="1" vertex="1">
          <mxGeometry x="-1010" y="405" width="100" height="40" as="geometry" />
        </mxCell>
        <mxCell id="G-8uH9gzmlZiW9w0FdUu-100" value="Teléfono" style="ellipse;whiteSpace=wrap;html=1;align=center;" parent="1" vertex="1">
          <mxGeometry x="-900" y="465" width="100" height="40" as="geometry" />
        </mxCell>
        <mxCell id="G-8uH9gzmlZiW9w0FdUu-102" value="Nombre&amp;nbsp;&lt;div&gt;comercial&lt;/div&gt;" style="ellipse;whiteSpace=wrap;html=1;align=center;" parent="1" vertex="1">
          <mxGeometry x="-500" y="275" width="100" height="40" as="geometry" />
        </mxCell>
        <mxCell id="G-8uH9gzmlZiW9w0FdUu-103" value="Tipo de&lt;div&gt;empresa&lt;/div&gt;" style="ellipse;whiteSpace=wrap;html=1;align=center;" parent="1" vertex="1">
          <mxGeometry x="-460" y="365" width="100" height="40" as="geometry" />
        </mxCell>
        <mxCell id="G-8uH9gzmlZiW9w0FdUu-104" value="Dirección" style="ellipse;whiteSpace=wrap;html=1;align=center;" parent="1" vertex="1">
          <mxGeometry x="-450" y="425" width="100" height="40" as="geometry" />
        </mxCell>
        <mxCell id="G-8uH9gzmlZiW9w0FdUu-109" value="Teléfono" style="ellipse;whiteSpace=wrap;html=1;align=center;" parent="1" vertex="1">
          <mxGeometry x="-550" y="495" width="100" height="40" as="geometry" />
        </mxCell>
        <mxCell id="G-8uH9gzmlZiW9w0FdUu-111" value="Conctacto" style="ellipse;whiteSpace=wrap;html=1;align=center;" parent="1" vertex="1">
          <mxGeometry x="-720" y="495" width="100" height="40" as="geometry" />
        </mxCell>
        <mxCell id="G-8uH9gzmlZiW9w0FdUu-121" value="" style="endArrow=none;html=1;rounded=0;entryX=0.5;entryY=1;entryDx=0;entryDy=0;exitX=0.5;exitY=0;exitDx=0;exitDy=0;" parent="1" source="G-8uH9gzmlZiW9w0FdUu-11" target="G-8uH9gzmlZiW9w0FdUu-65" edge="1">
          <mxGeometry relative="1" as="geometry">
            <mxPoint x="270" y="280" as="sourcePoint" />
            <mxPoint x="430" y="280" as="targetPoint" />
          </mxGeometry>
        </mxCell>
        <mxCell id="G-8uH9gzmlZiW9w0FdUu-122" value="" style="endArrow=none;html=1;rounded=0;entryX=0.5;entryY=1;entryDx=0;entryDy=0;exitX=0.5;exitY=0;exitDx=0;exitDy=0;" parent="1" source="G-8uH9gzmlZiW9w0FdUu-65" target="G-8uH9gzmlZiW9w0FdUu-52" edge="1">
          <mxGeometry relative="1" as="geometry">
            <mxPoint x="270" y="280" as="sourcePoint" />
            <mxPoint x="430" y="280" as="targetPoint" />
          </mxGeometry>
        </mxCell>
        <mxCell id="G-8uH9gzmlZiW9w0FdUu-124" value="Importe máximo&lt;div&gt;mensual&lt;/div&gt;" style="ellipse;whiteSpace=wrap;html=1;align=center;" parent="1" vertex="1">
          <mxGeometry x="692" y="890" width="100" height="40" as="geometry" />
        </mxCell>
        <mxCell id="Zevtjedcd_cMiRLPSGi3-1" value="Calle" style="ellipse;whiteSpace=wrap;html=1;align=center;" vertex="1" parent="1">
          <mxGeometry x="467" y="-300" width="100" height="40" as="geometry" />
        </mxCell>
        <mxCell id="Zevtjedcd_cMiRLPSGi3-2" value="Ciudad" style="ellipse;whiteSpace=wrap;html=1;align=center;" vertex="1" parent="1">
          <mxGeometry x="700" y="-280" width="100" height="40" as="geometry" />
        </mxCell>
        <mxCell id="Zevtjedcd_cMiRLPSGi3-3" value="Número" style="ellipse;whiteSpace=wrap;html=1;align=center;" vertex="1" parent="1">
          <mxGeometry x="590" y="-300" width="100" height="40" as="geometry" />
        </mxCell>
        <mxCell id="Zevtjedcd_cMiRLPSGi3-7" value="1" style="text;html=1;align=center;verticalAlign=middle;resizable=0;points=[];autosize=1;strokeColor=none;fillColor=none;" vertex="1" parent="1">
          <mxGeometry x="455" y="258" width="30" height="30" as="geometry" />
        </mxCell>
        <mxCell id="Zevtjedcd_cMiRLPSGi3-8" value="1" style="text;html=1;align=center;verticalAlign=middle;resizable=0;points=[];autosize=1;strokeColor=none;fillColor=none;" vertex="1" parent="1">
          <mxGeometry x="455" y="170" width="30" height="30" as="geometry" />
        </mxCell>
        <mxCell id="Zevtjedcd_cMiRLPSGi3-43" style="edgeStyle=orthogonalEdgeStyle;rounded=0;orthogonalLoop=1;jettySize=auto;html=1;exitX=1;exitY=0.25;exitDx=0;exitDy=0;entryX=0;entryY=0.5;entryDx=0;entryDy=0;" edge="1" parent="1" source="Zevtjedcd_cMiRLPSGi3-15" target="Zevtjedcd_cMiRLPSGi3-18">
          <mxGeometry relative="1" as="geometry" />
        </mxCell>
        <mxCell id="Zevtjedcd_cMiRLPSGi3-44" style="edgeStyle=orthogonalEdgeStyle;rounded=0;orthogonalLoop=1;jettySize=auto;html=1;exitX=1;exitY=0.75;exitDx=0;exitDy=0;entryX=0;entryY=0.5;entryDx=0;entryDy=0;" edge="1" parent="1" source="Zevtjedcd_cMiRLPSGi3-15" target="Zevtjedcd_cMiRLPSGi3-19">
          <mxGeometry relative="1" as="geometry" />
        </mxCell>
        <mxCell id="Zevtjedcd_cMiRLPSGi3-104" style="edgeStyle=orthogonalEdgeStyle;rounded=0;orthogonalLoop=1;jettySize=auto;html=1;exitX=0.75;exitY=1;exitDx=0;exitDy=0;entryX=0;entryY=0.5;entryDx=0;entryDy=0;" edge="1" parent="1" source="Zevtjedcd_cMiRLPSGi3-15" target="Zevtjedcd_cMiRLPSGi3-103">
          <mxGeometry relative="1" as="geometry">
            <Array as="points">
              <mxPoint x="920" y="430" />
              <mxPoint x="920" y="545" />
            </Array>
          </mxGeometry>
        </mxCell>
        <mxCell id="Zevtjedcd_cMiRLPSGi3-106" style="edgeStyle=orthogonalEdgeStyle;rounded=0;orthogonalLoop=1;jettySize=auto;html=1;exitX=1;exitY=0;exitDx=0;exitDy=0;entryX=0;entryY=0.5;entryDx=0;entryDy=0;" edge="1" parent="1" source="Zevtjedcd_cMiRLPSGi3-15" target="Zevtjedcd_cMiRLPSGi3-25">
          <mxGeometry relative="1" as="geometry" />
        </mxCell>
        <mxCell id="Zevtjedcd_cMiRLPSGi3-15" value="Inmueble" style="whiteSpace=wrap;html=1;align=center;" vertex="1" parent="1">
          <mxGeometry x="820" y="390" width="100" height="40" as="geometry" />
        </mxCell>
        <mxCell id="Zevtjedcd_cMiRLPSGi3-18" value="Tipo inmueble" style="ellipse;whiteSpace=wrap;html=1;align=center;" vertex="1" parent="1">
          <mxGeometry x="1030" y="360" width="100" height="40" as="geometry" />
        </mxCell>
        <mxCell id="Zevtjedcd_cMiRLPSGi3-19" value="Precio alquiler&lt;div&gt;mensual (EUR)&lt;/div&gt;" style="ellipse;whiteSpace=wrap;html=1;align=center;" vertex="1" parent="1">
          <mxGeometry x="993" y="470" width="100" height="40" as="geometry" />
        </mxCell>
        <mxCell id="Zevtjedcd_cMiRLPSGi3-21" value="Número de&amp;nbsp;&lt;div&gt;habitaciones&lt;/div&gt;" style="ellipse;whiteSpace=wrap;html=1;align=center;" vertex="1" parent="1">
          <mxGeometry x="1070" y="420" width="100" height="40" as="geometry" />
        </mxCell>
        <mxCell id="Zevtjedcd_cMiRLPSGi3-110" style="edgeStyle=orthogonalEdgeStyle;rounded=0;orthogonalLoop=1;jettySize=auto;html=1;exitX=1;exitY=0.5;exitDx=0;exitDy=0;entryX=0;entryY=0.5;entryDx=0;entryDy=0;" edge="1" parent="1" source="Zevtjedcd_cMiRLPSGi3-25" target="Zevtjedcd_cMiRLPSGi3-27">
          <mxGeometry relative="1" as="geometry" />
        </mxCell>
        <mxCell id="Zevtjedcd_cMiRLPSGi3-112" style="edgeStyle=orthogonalEdgeStyle;rounded=0;orthogonalLoop=1;jettySize=auto;html=1;exitX=1;exitY=0;exitDx=0;exitDy=0;entryX=0;entryY=0.5;entryDx=0;entryDy=0;" edge="1" parent="1" source="Zevtjedcd_cMiRLPSGi3-25" target="Zevtjedcd_cMiRLPSGi3-28">
          <mxGeometry relative="1" as="geometry" />
        </mxCell>
        <mxCell id="Zevtjedcd_cMiRLPSGi3-113" style="edgeStyle=orthogonalEdgeStyle;rounded=0;orthogonalLoop=1;jettySize=auto;html=1;exitX=0.5;exitY=0;exitDx=0;exitDy=0;" edge="1" parent="1" source="Zevtjedcd_cMiRLPSGi3-25" target="Zevtjedcd_cMiRLPSGi3-26">
          <mxGeometry relative="1" as="geometry" />
        </mxCell>
        <mxCell id="Zevtjedcd_cMiRLPSGi3-25" value="Dirección" style="ellipse;whiteSpace=wrap;html=1;align=center;" vertex="1" parent="1">
          <mxGeometry x="976.5" y="310" width="100" height="40" as="geometry" />
        </mxCell>
        <mxCell id="Zevtjedcd_cMiRLPSGi3-26" value="Calle" style="ellipse;whiteSpace=wrap;html=1;align=center;" vertex="1" parent="1">
          <mxGeometry x="1000" y="218" width="100" height="40" as="geometry" />
        </mxCell>
        <mxCell id="Zevtjedcd_cMiRLPSGi3-27" value="Ciudad" style="ellipse;whiteSpace=wrap;html=1;align=center;" vertex="1" parent="1">
          <mxGeometry x="1120" y="310" width="100" height="40" as="geometry" />
        </mxCell>
        <mxCell id="Zevtjedcd_cMiRLPSGi3-28" value="Número" style="ellipse;whiteSpace=wrap;html=1;align=center;" vertex="1" parent="1">
          <mxGeometry x="1120" y="250" width="100" height="40" as="geometry" />
        </mxCell>
        <mxCell id="Zevtjedcd_cMiRLPSGi3-33" value="Relationship" style="shape=rhombus;perimeter=rhombusPerimeter;whiteSpace=wrap;html=1;align=center;" vertex="1" parent="1">
          <mxGeometry x="657" y="380" width="120" height="60" as="geometry" />
        </mxCell>
        <mxCell id="Zevtjedcd_cMiRLPSGi3-34" value="" style="endArrow=none;html=1;rounded=0;exitX=1;exitY=0.5;exitDx=0;exitDy=0;entryX=0;entryY=0.5;entryDx=0;entryDy=0;" edge="1" parent="1" source="G-8uH9gzmlZiW9w0FdUu-11" target="Zevtjedcd_cMiRLPSGi3-33">
          <mxGeometry relative="1" as="geometry">
            <mxPoint x="492" y="419.5" as="sourcePoint" />
            <mxPoint x="652" y="419.5" as="targetPoint" />
          </mxGeometry>
        </mxCell>
        <mxCell id="Zevtjedcd_cMiRLPSGi3-42" style="edgeStyle=orthogonalEdgeStyle;rounded=0;orthogonalLoop=1;jettySize=auto;html=1;exitX=1;exitY=0.5;exitDx=0;exitDy=0;entryX=0.056;entryY=0.406;entryDx=0;entryDy=0;entryPerimeter=0;" edge="1" parent="1" source="Zevtjedcd_cMiRLPSGi3-15" target="Zevtjedcd_cMiRLPSGi3-21">
          <mxGeometry relative="1" as="geometry" />
        </mxCell>
        <mxCell id="Zevtjedcd_cMiRLPSGi3-46" value="" style="endArrow=none;html=1;rounded=0;exitX=1;exitY=0.5;exitDx=0;exitDy=0;entryX=0;entryY=0.5;entryDx=0;entryDy=0;" edge="1" parent="1" source="Zevtjedcd_cMiRLPSGi3-33" target="Zevtjedcd_cMiRLPSGi3-15">
          <mxGeometry relative="1" as="geometry">
            <mxPoint x="760" y="440" as="sourcePoint" />
            <mxPoint x="920" y="440" as="targetPoint" />
          </mxGeometry>
        </mxCell>
        <mxCell id="Zevtjedcd_cMiRLPSGi3-47" value="1" style="text;html=1;align=center;verticalAlign=middle;resizable=0;points=[];autosize=1;strokeColor=none;fillColor=none;" vertex="1" parent="1">
          <mxGeometry x="635" y="380" width="30" height="30" as="geometry" />
        </mxCell>
        <mxCell id="Zevtjedcd_cMiRLPSGi3-48" value="20" style="text;html=1;align=center;verticalAlign=middle;resizable=0;points=[];autosize=1;strokeColor=none;fillColor=none;" vertex="1" parent="1">
          <mxGeometry x="760" y="378" width="40" height="30" as="geometry" />
        </mxCell>
        <mxCell id="Zevtjedcd_cMiRLPSGi3-80" style="edgeStyle=orthogonalEdgeStyle;rounded=0;orthogonalLoop=1;jettySize=auto;html=1;exitX=0;exitY=0.5;exitDx=0;exitDy=0;entryX=0.5;entryY=0;entryDx=0;entryDy=0;" edge="1" parent="1" source="Zevtjedcd_cMiRLPSGi3-50" target="Zevtjedcd_cMiRLPSGi3-52">
          <mxGeometry relative="1" as="geometry" />
        </mxCell>
        <mxCell id="Zevtjedcd_cMiRLPSGi3-81" style="edgeStyle=orthogonalEdgeStyle;rounded=0;orthogonalLoop=1;jettySize=auto;html=1;exitX=0.5;exitY=1;exitDx=0;exitDy=0;entryX=0.5;entryY=0;entryDx=0;entryDy=0;" edge="1" parent="1" source="Zevtjedcd_cMiRLPSGi3-50" target="Zevtjedcd_cMiRLPSGi3-53">
          <mxGeometry relative="1" as="geometry" />
        </mxCell>
        <mxCell id="Zevtjedcd_cMiRLPSGi3-82" style="edgeStyle=orthogonalEdgeStyle;rounded=0;orthogonalLoop=1;jettySize=auto;html=1;exitX=1;exitY=0.5;exitDx=0;exitDy=0;entryX=0.5;entryY=0;entryDx=0;entryDy=0;" edge="1" parent="1" source="Zevtjedcd_cMiRLPSGi3-50" target="Zevtjedcd_cMiRLPSGi3-54">
          <mxGeometry relative="1" as="geometry" />
        </mxCell>
        <mxCell id="Zevtjedcd_cMiRLPSGi3-83" style="edgeStyle=orthogonalEdgeStyle;rounded=0;orthogonalLoop=1;jettySize=auto;html=1;exitX=0.5;exitY=0;exitDx=0;exitDy=0;entryX=0.5;entryY=1;entryDx=0;entryDy=0;" edge="1" parent="1" source="Zevtjedcd_cMiRLPSGi3-50" target="G-8uH9gzmlZiW9w0FdUu-78">
          <mxGeometry relative="1" as="geometry" />
        </mxCell>
        <mxCell id="Zevtjedcd_cMiRLPSGi3-50" value="Entrevista inicial" style="ellipse;whiteSpace=wrap;html=1;align=center;" vertex="1" parent="1">
          <mxGeometry x="537" y="960" width="100" height="40" as="geometry" />
        </mxCell>
        <mxCell id="Zevtjedcd_cMiRLPSGi3-52" value="Fecha" style="ellipse;whiteSpace=wrap;html=1;align=center;" vertex="1" parent="1">
          <mxGeometry x="417" y="1000" width="100" height="40" as="geometry" />
        </mxCell>
        <mxCell id="Zevtjedcd_cMiRLPSGi3-53" value="Comentarios" style="ellipse;whiteSpace=wrap;html=1;align=center;" vertex="1" parent="1">
          <mxGeometry x="547" y="1030" width="100" height="40" as="geometry" />
        </mxCell>
        <mxCell id="Zevtjedcd_cMiRLPSGi3-54" value="Empleado asignado" style="ellipse;whiteSpace=wrap;html=1;align=center;" vertex="1" parent="1">
          <mxGeometry x="647" y="1000" width="100" height="40" as="geometry" />
        </mxCell>
        <mxCell id="Zevtjedcd_cMiRLPSGi3-87" style="edgeStyle=orthogonalEdgeStyle;rounded=0;orthogonalLoop=1;jettySize=auto;html=1;exitX=0.75;exitY=0;exitDx=0;exitDy=0;entryX=0;entryY=0.5;entryDx=0;entryDy=0;" edge="1" parent="1" source="Zevtjedcd_cMiRLPSGi3-62" target="Zevtjedcd_cMiRLPSGi3-66">
          <mxGeometry relative="1" as="geometry" />
        </mxCell>
        <mxCell id="Zevtjedcd_cMiRLPSGi3-88" style="edgeStyle=orthogonalEdgeStyle;rounded=0;orthogonalLoop=1;jettySize=auto;html=1;exitX=1;exitY=0.5;exitDx=0;exitDy=0;entryX=0;entryY=0.5;entryDx=0;entryDy=0;" edge="1" parent="1" source="Zevtjedcd_cMiRLPSGi3-62" target="Zevtjedcd_cMiRLPSGi3-63">
          <mxGeometry relative="1" as="geometry" />
        </mxCell>
        <mxCell id="Zevtjedcd_cMiRLPSGi3-89" style="edgeStyle=orthogonalEdgeStyle;rounded=0;orthogonalLoop=1;jettySize=auto;html=1;exitX=1;exitY=0.75;exitDx=0;exitDy=0;entryX=0;entryY=0.5;entryDx=0;entryDy=0;" edge="1" parent="1" source="Zevtjedcd_cMiRLPSGi3-62" target="Zevtjedcd_cMiRLPSGi3-64">
          <mxGeometry relative="1" as="geometry" />
        </mxCell>
        <mxCell id="Zevtjedcd_cMiRLPSGi3-62" value="Visita inmueble" style="whiteSpace=wrap;html=1;align=center;" vertex="1" parent="1">
          <mxGeometry x="680" y="595" width="100" height="40" as="geometry" />
        </mxCell>
        <mxCell id="Zevtjedcd_cMiRLPSGi3-63" value="Fecha" style="ellipse;whiteSpace=wrap;html=1;align=center;" vertex="1" parent="1">
          <mxGeometry x="830" y="585" width="100" height="40" as="geometry" />
        </mxCell>
        <mxCell id="Zevtjedcd_cMiRLPSGi3-64" value="Comentarios" style="ellipse;whiteSpace=wrap;html=1;align=center;" vertex="1" parent="1">
          <mxGeometry x="820" y="645" width="100" height="40" as="geometry" />
        </mxCell>
        <mxCell id="Zevtjedcd_cMiRLPSGi3-66" value="Id_visita" style="ellipse;whiteSpace=wrap;html=1;align=center;fontStyle=4;" vertex="1" parent="1">
          <mxGeometry x="793" y="525" width="100" height="40" as="geometry" />
        </mxCell>
        <mxCell id="Zevtjedcd_cMiRLPSGi3-70" value="" style="endArrow=none;html=1;rounded=0;exitX=0;exitY=0.5;exitDx=0;exitDy=0;entryX=0.25;entryY=1;entryDx=0;entryDy=0;" edge="1" parent="1" source="G-8uH9gzmlZiW9w0FdUu-34" target="G-8uH9gzmlZiW9w0FdUu-11">
          <mxGeometry relative="1" as="geometry">
            <mxPoint x="440" y="660" as="sourcePoint" />
            <mxPoint x="600" y="660" as="targetPoint" />
          </mxGeometry>
        </mxCell>
        <mxCell id="Zevtjedcd_cMiRLPSGi3-75" value="" style="endArrow=none;html=1;rounded=0;exitX=0.75;exitY=1;exitDx=0;exitDy=0;entryX=0.5;entryY=0;entryDx=0;entryDy=0;" edge="1" parent="1" source="G-8uH9gzmlZiW9w0FdUu-11" target="Zevtjedcd_cMiRLPSGi3-76">
          <mxGeometry relative="1" as="geometry">
            <mxPoint x="650" y="650" as="sourcePoint" />
            <mxPoint x="560" y="620" as="targetPoint" />
          </mxGeometry>
        </mxCell>
        <mxCell id="Zevtjedcd_cMiRLPSGi3-76" value="Relationship" style="shape=rhombus;perimeter=rhombusPerimeter;whiteSpace=wrap;html=1;align=center;" vertex="1" parent="1">
          <mxGeometry x="450" y="585" width="120" height="60" as="geometry" />
        </mxCell>
        <mxCell id="Zevtjedcd_cMiRLPSGi3-85" value="" style="endArrow=none;html=1;rounded=0;exitX=0.5;exitY=1;exitDx=0;exitDy=0;entryX=0.5;entryY=0;entryDx=0;entryDy=0;" edge="1" parent="1" source="Zevtjedcd_cMiRLPSGi3-76" target="G-8uH9gzmlZiW9w0FdUu-78">
          <mxGeometry relative="1" as="geometry">
            <mxPoint x="570" y="820" as="sourcePoint" />
            <mxPoint x="730" y="820" as="targetPoint" />
          </mxGeometry>
        </mxCell>
        <mxCell id="Zevtjedcd_cMiRLPSGi3-90" value="" style="endArrow=none;html=1;rounded=0;exitX=1;exitY=0.5;exitDx=0;exitDy=0;entryX=0;entryY=0.5;entryDx=0;entryDy=0;" edge="1" parent="1" source="Zevtjedcd_cMiRLPSGi3-76" target="Zevtjedcd_cMiRLPSGi3-62">
          <mxGeometry relative="1" as="geometry">
            <mxPoint x="820" y="720" as="sourcePoint" />
            <mxPoint x="980" y="720" as="targetPoint" />
          </mxGeometry>
        </mxCell>
        <mxCell id="Zevtjedcd_cMiRLPSGi3-94" value="N" style="text;html=1;align=center;verticalAlign=middle;resizable=0;points=[];autosize=1;strokeColor=none;fillColor=none;" vertex="1" parent="1">
          <mxGeometry x="513" y="645" width="30" height="30" as="geometry" />
        </mxCell>
        <mxCell id="Zevtjedcd_cMiRLPSGi3-95" value="N" style="text;html=1;align=center;verticalAlign=middle;resizable=0;points=[];autosize=1;strokeColor=none;fillColor=none;" vertex="1" parent="1">
          <mxGeometry x="567" y="610" width="30" height="30" as="geometry" />
        </mxCell>
        <mxCell id="Zevtjedcd_cMiRLPSGi3-120" style="edgeStyle=orthogonalEdgeStyle;rounded=0;orthogonalLoop=1;jettySize=auto;html=1;exitX=1;exitY=0.5;exitDx=0;exitDy=0;entryX=0.5;entryY=1;entryDx=0;entryDy=0;" edge="1" parent="1" source="Zevtjedcd_cMiRLPSGi3-97" target="Zevtjedcd_cMiRLPSGi3-100">
          <mxGeometry relative="1" as="geometry" />
        </mxCell>
        <mxCell id="Zevtjedcd_cMiRLPSGi3-122" style="edgeStyle=orthogonalEdgeStyle;rounded=0;orthogonalLoop=1;jettySize=auto;html=1;exitX=0;exitY=0.25;exitDx=0;exitDy=0;" edge="1" parent="1" source="Zevtjedcd_cMiRLPSGi3-97" target="Zevtjedcd_cMiRLPSGi3-98">
          <mxGeometry relative="1" as="geometry" />
        </mxCell>
        <mxCell id="Zevtjedcd_cMiRLPSGi3-124" style="edgeStyle=orthogonalEdgeStyle;rounded=0;orthogonalLoop=1;jettySize=auto;html=1;exitX=0;exitY=0.75;exitDx=0;exitDy=0;entryX=0.5;entryY=0;entryDx=0;entryDy=0;" edge="1" parent="1" source="Zevtjedcd_cMiRLPSGi3-97" target="Zevtjedcd_cMiRLPSGi3-99">
          <mxGeometry relative="1" as="geometry" />
        </mxCell>
        <mxCell id="Zevtjedcd_cMiRLPSGi3-97" value="Publicidad inmueble" style="whiteSpace=wrap;html=1;align=center;" vertex="1" parent="1">
          <mxGeometry x="820" y="160" width="100" height="40" as="geometry" />
        </mxCell>
        <mxCell id="Zevtjedcd_cMiRLPSGi3-98" value="Id_anuncio" style="ellipse;whiteSpace=wrap;html=1;align=center;fontStyle=4;" vertex="1" parent="1">
          <mxGeometry x="680" y="140" width="100" height="40" as="geometry" />
        </mxCell>
        <mxCell id="Zevtjedcd_cMiRLPSGi3-99" value="Fecha publicación&amp;nbsp;" style="ellipse;whiteSpace=wrap;html=1;align=center;" vertex="1" parent="1">
          <mxGeometry x="700" y="210" width="100" height="40" as="geometry" />
        </mxCell>
        <mxCell id="Zevtjedcd_cMiRLPSGi3-100" value="Coste económico" style="ellipse;whiteSpace=wrap;html=1;align=center;" vertex="1" parent="1">
          <mxGeometry x="943" y="120" width="100" height="40" as="geometry" />
        </mxCell>
        <mxCell id="Zevtjedcd_cMiRLPSGi3-103" value="Id_inmueble" style="ellipse;whiteSpace=wrap;html=1;align=center;fontStyle=4;" vertex="1" parent="1">
          <mxGeometry x="943" y="525" width="100" height="40" as="geometry" />
        </mxCell>
        <mxCell id="Zevtjedcd_cMiRLPSGi3-115" value="Relationship" style="shape=rhombus;perimeter=rhombusPerimeter;whiteSpace=wrap;html=1;align=center;" vertex="1" parent="1">
          <mxGeometry x="810" y="260" width="120" height="60" as="geometry" />
        </mxCell>
        <mxCell id="Zevtjedcd_cMiRLPSGi3-116" value="" style="endArrow=none;html=1;rounded=0;entryX=0.5;entryY=0;entryDx=0;entryDy=0;exitX=0.5;exitY=1;exitDx=0;exitDy=0;" edge="1" parent="1" source="Zevtjedcd_cMiRLPSGi3-115" target="Zevtjedcd_cMiRLPSGi3-15">
          <mxGeometry relative="1" as="geometry">
            <mxPoint x="870" y="310" as="sourcePoint" />
            <mxPoint x="1030" y="250" as="targetPoint" />
          </mxGeometry>
        </mxCell>
        <mxCell id="Zevtjedcd_cMiRLPSGi3-117" value="" style="endArrow=none;html=1;rounded=0;exitX=0.5;exitY=0;exitDx=0;exitDy=0;entryX=0.5;entryY=1;entryDx=0;entryDy=0;" edge="1" parent="1" source="Zevtjedcd_cMiRLPSGi3-115" target="Zevtjedcd_cMiRLPSGi3-97">
          <mxGeometry relative="1" as="geometry">
            <mxPoint x="830" y="280" as="sourcePoint" />
            <mxPoint x="990" y="280" as="targetPoint" />
          </mxGeometry>
        </mxCell>
        <mxCell id="Zevtjedcd_cMiRLPSGi3-118" value="N" style="text;html=1;align=center;verticalAlign=middle;resizable=0;points=[];autosize=1;strokeColor=none;fillColor=none;" vertex="1" parent="1">
          <mxGeometry x="865" y="315" width="30" height="30" as="geometry" />
        </mxCell>
        <mxCell id="Zevtjedcd_cMiRLPSGi3-119" value="M" style="text;html=1;align=center;verticalAlign=middle;resizable=0;points=[];autosize=1;strokeColor=none;fillColor=none;" vertex="1" parent="1">
          <mxGeometry x="865" y="237" width="30" height="30" as="geometry" />
        </mxCell>
        <mxCell id="Zevtjedcd_cMiRLPSGi3-125" value="Relationship" style="shape=rhombus;perimeter=rhombusPerimeter;whiteSpace=wrap;html=1;align=center;" vertex="1" parent="1">
          <mxGeometry x="810" y="20" width="120" height="60" as="geometry" />
        </mxCell>
        <mxCell id="Zevtjedcd_cMiRLPSGi3-126" value="" style="endArrow=none;html=1;rounded=0;exitX=0.5;exitY=0;exitDx=0;exitDy=0;entryX=0.5;entryY=1;entryDx=0;entryDy=0;" edge="1" parent="1" source="Zevtjedcd_cMiRLPSGi3-97" target="Zevtjedcd_cMiRLPSGi3-125">
          <mxGeometry relative="1" as="geometry">
            <mxPoint x="880" y="120" as="sourcePoint" />
            <mxPoint x="1040" y="120" as="targetPoint" />
          </mxGeometry>
        </mxCell>
        <mxCell id="Zevtjedcd_cMiRLPSGi3-140" style="edgeStyle=orthogonalEdgeStyle;rounded=0;orthogonalLoop=1;jettySize=auto;html=1;exitX=0;exitY=0.5;exitDx=0;exitDy=0;entryX=0.5;entryY=0;entryDx=0;entryDy=0;" edge="1" parent="1" source="Zevtjedcd_cMiRLPSGi3-127" target="Zevtjedcd_cMiRLPSGi3-139">
          <mxGeometry relative="1" as="geometry" />
        </mxCell>
        <mxCell id="Zevtjedcd_cMiRLPSGi3-141" style="edgeStyle=orthogonalEdgeStyle;rounded=0;orthogonalLoop=1;jettySize=auto;html=1;exitX=0;exitY=0.25;exitDx=0;exitDy=0;entryX=0.5;entryY=1;entryDx=0;entryDy=0;" edge="1" parent="1" source="Zevtjedcd_cMiRLPSGi3-127" target="Zevtjedcd_cMiRLPSGi3-131">
          <mxGeometry relative="1" as="geometry" />
        </mxCell>
        <mxCell id="Zevtjedcd_cMiRLPSGi3-142" style="edgeStyle=orthogonalEdgeStyle;rounded=0;orthogonalLoop=1;jettySize=auto;html=1;exitX=0.25;exitY=0;exitDx=0;exitDy=0;entryX=0.5;entryY=1;entryDx=0;entryDy=0;" edge="1" parent="1" source="Zevtjedcd_cMiRLPSGi3-127" target="Zevtjedcd_cMiRLPSGi3-133">
          <mxGeometry relative="1" as="geometry" />
        </mxCell>
        <mxCell id="Zevtjedcd_cMiRLPSGi3-143" style="edgeStyle=orthogonalEdgeStyle;rounded=0;orthogonalLoop=1;jettySize=auto;html=1;exitX=0.5;exitY=0;exitDx=0;exitDy=0;entryX=0.5;entryY=1;entryDx=0;entryDy=0;" edge="1" parent="1" source="Zevtjedcd_cMiRLPSGi3-127" target="Zevtjedcd_cMiRLPSGi3-134">
          <mxGeometry relative="1" as="geometry" />
        </mxCell>
        <mxCell id="Zevtjedcd_cMiRLPSGi3-145" style="edgeStyle=orthogonalEdgeStyle;rounded=0;orthogonalLoop=1;jettySize=auto;html=1;exitX=1;exitY=0.25;exitDx=0;exitDy=0;entryX=0;entryY=0.5;entryDx=0;entryDy=0;" edge="1" parent="1" source="Zevtjedcd_cMiRLPSGi3-127" target="Zevtjedcd_cMiRLPSGi3-137">
          <mxGeometry relative="1" as="geometry" />
        </mxCell>
        <mxCell id="Zevtjedcd_cMiRLPSGi3-146" style="edgeStyle=orthogonalEdgeStyle;rounded=0;orthogonalLoop=1;jettySize=auto;html=1;exitX=1;exitY=0.75;exitDx=0;exitDy=0;entryX=0;entryY=0.5;entryDx=0;entryDy=0;" edge="1" parent="1" source="Zevtjedcd_cMiRLPSGi3-127" target="Zevtjedcd_cMiRLPSGi3-138">
          <mxGeometry relative="1" as="geometry" />
        </mxCell>
        <mxCell id="Zevtjedcd_cMiRLPSGi3-127" value="Periódicos" style="whiteSpace=wrap;html=1;align=center;" vertex="1" parent="1">
          <mxGeometry x="820" y="-90" width="100" height="40" as="geometry" />
        </mxCell>
        <mxCell id="Zevtjedcd_cMiRLPSGi3-128" value="" style="endArrow=none;html=1;rounded=0;exitX=0.5;exitY=0;exitDx=0;exitDy=0;entryX=0.5;entryY=1;entryDx=0;entryDy=0;" edge="1" parent="1" source="Zevtjedcd_cMiRLPSGi3-125" target="Zevtjedcd_cMiRLPSGi3-127">
          <mxGeometry relative="1" as="geometry">
            <mxPoint x="860" y="30" as="sourcePoint" />
            <mxPoint x="1020" y="30" as="targetPoint" />
          </mxGeometry>
        </mxCell>
        <mxCell id="Zevtjedcd_cMiRLPSGi3-129" value="N" style="text;html=1;align=center;verticalAlign=middle;resizable=0;points=[];autosize=1;strokeColor=none;fillColor=none;" vertex="1" parent="1">
          <mxGeometry x="865" y="75" width="30" height="30" as="geometry" />
        </mxCell>
        <mxCell id="Zevtjedcd_cMiRLPSGi3-130" value="M" style="text;html=1;align=center;verticalAlign=middle;resizable=0;points=[];autosize=1;strokeColor=none;fillColor=none;" vertex="1" parent="1">
          <mxGeometry x="865" y="-10" width="30" height="30" as="geometry" />
        </mxCell>
        <mxCell id="Zevtjedcd_cMiRLPSGi3-131" value="Id_periodico" style="ellipse;whiteSpace=wrap;html=1;align=center;fontStyle=4;" vertex="1" parent="1">
          <mxGeometry x="720" y="-140" width="100" height="40" as="geometry" />
        </mxCell>
        <mxCell id="Zevtjedcd_cMiRLPSGi3-133" value="Nombre" style="ellipse;whiteSpace=wrap;html=1;align=center;" vertex="1" parent="1">
          <mxGeometry x="810" y="-180" width="100" height="40" as="geometry" />
        </mxCell>
        <mxCell id="Zevtjedcd_cMiRLPSGi3-134" value="Dirección" style="ellipse;whiteSpace=wrap;html=1;align=center;" vertex="1" parent="1">
          <mxGeometry x="920" y="-170" width="100" height="40" as="geometry" />
        </mxCell>
        <mxCell id="Zevtjedcd_cMiRLPSGi3-137" value="Teléfono" style="ellipse;whiteSpace=wrap;html=1;align=center;" vertex="1" parent="1">
          <mxGeometry x="943" y="-100" width="100" height="40" as="geometry" />
        </mxCell>
        <mxCell id="Zevtjedcd_cMiRLPSGi3-138" value="Fax&amp;nbsp;" style="ellipse;whiteSpace=wrap;html=1;align=center;" vertex="1" parent="1">
          <mxGeometry x="960" y="-40" width="100" height="40" as="geometry" />
        </mxCell>
        <mxCell id="Zevtjedcd_cMiRLPSGi3-139" value="Contacto" style="ellipse;whiteSpace=wrap;html=1;align=center;" vertex="1" parent="1">
          <mxGeometry x="710" y="-50" width="100" height="40" as="geometry" />
        </mxCell>
      </root>
    </mxGraphModel>
  </diagram>
</mxfile>
